<svg xmlns="http://www.w3.org/2000/svg" width="1366" height="768" viewBox="0 0 1366 768">
  <rect width="1366" height="768" fill="#f6f7fb"/>
  <text x="36" y="70" font-family="Arial, sans-serif" font-size="44" fill="#1f2937">M4B Switch Loading State</text>
  <rect x="36" y="108" width="1294" height="620" rx="12" fill="#ffffff" stroke="#d6dbe7"/>
  <text x="64" y="164" font-family="Arial, sans-serif" font-size="26" fill="#1f2937">Switching featured ligand: 05_2e</text>
  <rect x="64" y="190" width="220" height="44" rx="22" fill="#1f6fbf"/>
  <text x="123" y="218" font-family="Arial, sans-serif" font-size="20" fill="#ffffff">05_2e</text>
  <rect x="304" y="190" width="220" height="44" rx="22" fill="#edf2fb" stroke="#9fb4d8"/>
  <text x="340" y="218" font-family="Arial, sans-serif" font-size="20" fill="#26456f">Crystal Ligand</text>
  <rect x="544" y="190" width="220" height="44" rx="22" fill="#edf2fb" stroke="#9fb4d8"/>
  <text x="608" y="218" font-family="Arial, sans-serif" font-size="20" fill="#26456f">06_2f</text>
  <rect x="784" y="190" width="220" height="44" rx="22" fill="#edf2fb" stroke="#9fb4d8"/>
  <text x="848" y="218" font-family="Arial, sans-serif" font-size="20" fill="#26456f">07_2g</text>
  <rect x="64" y="280" width="560" height="86" rx="10" fill="#fff8e1" stroke="#e4c979"/>
  <text x="88" y="318" font-family="Arial, sans-serif" font-size="24" fill="#7b5b00">Loading selected ligand poses...</text>
  <text x="88" y="346" font-family="Arial, sans-serif" font-size="18" fill="#7b5b00">Local controls show progress, page stays interactive.</text>
  <rect x="700" y="300" width="600" height="390" rx="10" fill="#f9fbff" stroke="#d6dbe7"/>
  <circle cx="1000" cy="500" r="34" fill="none" stroke="#1f6fbf" stroke-width="10" stroke-dasharray="120 60"/>
  <text x="922" y="568" font-family="Arial, sans-serif" font-size="22" fill="#334155">Viewport remains mounted</text>
</svg>
