<svg xmlns="http://www.w3.org/2000/svg" width="1366" height="768" viewBox="0 0 1366 768">
  <rect width="1366" height="768" fill="#f6f7fb"/>
  <text x="36" y="70" font-family="Arial, sans-serif" font-size="44" fill="#1f2937">M4B Switch Success State</text>
  <rect x="36" y="108" width="1294" height="620" rx="12" fill="#ffffff" stroke="#d6dbe7"/>
  <text x="64" y="164" font-family="Arial, sans-serif" font-size="26" fill="#1f2937">Featured ligand switched in-place</text>
  <rect x="64" y="190" width="220" height="44" rx="22" fill="#1f6fbf"/>
  <text x="128" y="218" font-family="Arial, sans-serif" font-size="20" fill="#ffffff">06_2f</text>
  <rect x="304" y="190" width="220" height="44" rx="22" fill="#edf2fb" stroke="#9fb4d8"/>
  <text x="340" y="218" font-family="Arial, sans-serif" font-size="20" fill="#26456f">Crystal Ligand</text>
  <rect x="544" y="190" width="220" height="44" rx="22" fill="#edf2fb" stroke="#9fb4d8"/>
  <text x="608" y="218" font-family="Arial, sans-serif" font-size="20" fill="#26456f">05_2e</text>
  <rect x="784" y="190" width="220" height="44" rx="22" fill="#edf2fb" stroke="#9fb4d8"/>
  <text x="848" y="218" font-family="Arial, sans-serif" font-size="20" fill="#26456f">07_2g</text>
  <rect x="64" y="270" width="620" height="120" rx="10" fill="#eefaf2" stroke="#8dc7a0"/>
  <text x="88" y="318" font-family="Arial, sans-serif" font-size="24" fill="#14532d">Ligand switch completed with camera preserved.</text>
  <text x="88" y="350" font-family="Arial, sans-serif" font-size="20" fill="#14532d">M4A pose toggles and zoom remain available.</text>
  <rect x="760" y="300" width="540" height="390" rx="10" fill="#f9fbff" stroke="#d6dbe7"/>
  <text x="790" y="356" font-family="Arial, sans-serif" font-size="22" fill="#334155">Pose state continuity:</text>
  <text x="790" y="394" font-family="Arial, sans-serif" font-size="20" fill="#334155">Baseline: ON</text>
  <text x="790" y="426" font-family="Arial, sans-serif" font-size="20" fill="#334155">Refined: ON</text>
  <text x="790" y="458" font-family="Arial, sans-serif" font-size="20" fill="#334155">Legend visible (both-visible)</text>
</svg>
