<svg xmlns="http://www.w3.org/2000/svg" width="768" height="768" viewBox="0 0 768 768">
  <rect width="768" height="768" fill="#f7f8fb"/>
  <rect x="0" y="0" width="768" height="56" fill="#f3f5f9" stroke="#d9deea"/>
  <text x="14" y="36" font-family="Arial, sans-serif" font-size="18" font-weight="700" fill="#1e2a44">FragMaps and Ligand Analysis</text>

  <rect x="0" y="56" width="520" height="712" fill="#eef2f8" stroke="#d9deea"/>
  <rect x="14" y="82" width="492" height="672" fill="#e4e9f3" stroke="#cfd7e8" stroke-width="2"/>
  <text x="28" y="108" font-family="Arial, sans-serif" font-size="14" fill="#5a6d93">3D viewport</text>

  <rect x="520" y="56" width="248" height="712" fill="#fbfcff" stroke="#d9deea"/>
  <text x="534" y="88" font-family="Arial, sans-serif" font-size="20" font-weight="700" fill="#1e2a44">FragMap</text>

  <rect x="534" y="100" width="66" height="26" rx="7" fill="#2a5eb7"/>
  <text x="549" y="117" font-family="Arial, sans-serif" font-size="12" fill="#fff">Hide all</text>
  <rect x="606" y="100" width="92" height="26" rx="7" fill="#2a5eb7"/>
  <text x="616" y="117" font-family="Arial, sans-serif" font-size="12" fill="#fff">Reset defaults</text>

  <line x1="534" y1="136" x2="754" y2="136" stroke="#e0e6f1"/>

  <text x="534" y="160" font-family="Arial, sans-serif" font-size="14" font-weight="700" fill="#273451">Primary 3</text>
  <text x="593" y="160" font-family="Arial, sans-serif" font-size="11" fill="#6f7f9d">(fast workflow)</text>

  <!-- Primary rows with per-map iso -->
  <rect x="534" y="170" width="14" height="14" fill="#fff" stroke="#8ea0c2" stroke-width="1.5"/>
  <polyline points="537,177 540,181 547,173" fill="none" stroke="#2a5eb7" stroke-width="2"/>
  <text x="556" y="182" font-family="Arial, sans-serif" font-size="12" fill="#273451">Generic Apolar</text>
  <rect x="681" y="166" width="18" height="20" rx="3" fill="#f0f4fb" stroke="#d2dceb"/><text x="688" y="180" font-family="Arial, sans-serif" font-size="12" fill="#7a8cae">-</text>
  <rect x="701" y="166" width="36" height="20" rx="3" fill="#fff" stroke="#b9c7df"/><text x="709" y="180" font-family="Arial, sans-serif" font-size="11" fill="#42577f">-1.2</text>
  <rect x="739" y="166" width="18" height="20" rx="3" fill="#f0f4fb" stroke="#d2dceb"/><text x="745" y="180" font-family="Arial, sans-serif" font-size="12" fill="#7a8cae">+</text>

  <rect x="534" y="196" width="14" height="14" fill="#fff" stroke="#8ea0c2" stroke-width="1.5"/>
  <polyline points="537,203 540,207 547,199" fill="none" stroke="#2a5eb7" stroke-width="2"/>
  <text x="556" y="208" font-family="Arial, sans-serif" font-size="12" fill="#273451">Generic Donor</text>
  <rect x="681" y="192" width="18" height="20" rx="3" fill="#f0f4fb" stroke="#d2dceb"/><text x="688" y="206" font-family="Arial, sans-serif" font-size="12" fill="#7a8cae">-</text>
  <rect x="701" y="192" width="36" height="20" rx="3" fill="#fff" stroke="#b9c7df"/><text x="709" y="206" font-family="Arial, sans-serif" font-size="11" fill="#42577f">-0.8</text>
  <rect x="739" y="192" width="18" height="20" rx="3" fill="#f0f4fb" stroke="#d2dceb"/><text x="745" y="206" font-family="Arial, sans-serif" font-size="12" fill="#7a8cae">+</text>

  <rect x="534" y="222" width="14" height="14" fill="#fff" stroke="#8ea0c2" stroke-width="1.5"/>
  <text x="556" y="234" font-family="Arial, sans-serif" font-size="12" fill="#273451">Generic Acceptor</text>
  <rect x="681" y="218" width="18" height="20" rx="3" fill="#f0f4fb" stroke="#d2dceb"/><text x="688" y="232" font-family="Arial, sans-serif" font-size="12" fill="#7a8cae">-</text>
  <rect x="701" y="218" width="36" height="20" rx="3" fill="#fff" stroke="#b9c7df"/><text x="709" y="232" font-family="Arial, sans-serif" font-size="11" fill="#42577f">-0.8</text>
  <rect x="739" y="218" width="18" height="20" rx="3" fill="#f0f4fb" stroke="#d2dceb"/><text x="745" y="232" font-family="Arial, sans-serif" font-size="12" fill="#7a8cae">+</text>

  <line x1="534" y1="250" x2="754" y2="250" stroke="#e0e6f1"/>

  <text x="534" y="274" font-family="Arial, sans-serif" font-size="14" font-weight="700" fill="#273451">Advanced</text>
  <text x="594" y="274" font-family="Arial, sans-serif" font-size="11" fill="#6f7f9d">(full map list)</text>
  <text x="742" y="274" font-family="Arial, sans-serif" font-size="13" fill="#5570a0">v</text>

  <rect x="534" y="284" width="220" height="350" rx="8" fill="#fff" stroke="#d5dff0"/>

  <!-- Advanced rows -->
  <g font-family="Arial, sans-serif" font-size="12" fill="#334465">
    <rect x="544" y="300" width="14" height="14" fill="#fff" stroke="#9aaac8"/><text x="566" y="312">Positively Charged</text>
    <rect x="681" y="296" width="18" height="20" rx="3" fill="#f0f4fb" stroke="#d2dceb"/><text x="688" y="310" fill="#7a8cae">-</text>
    <rect x="701" y="296" width="36" height="20" rx="3" fill="#fff" stroke="#b9c7df"/><text x="709" y="310" fill="#42577f">-1.2</text>
    <rect x="739" y="296" width="18" height="20" rx="3" fill="#f0f4fb" stroke="#d2dceb"/><text x="745" y="310" fill="#7a8cae">+</text>

    <rect x="544" y="328" width="14" height="14" fill="#fff" stroke="#9aaac8"/><text x="566" y="340">Negatively Charged</text>
    <rect x="681" y="324" width="18" height="20" rx="3" fill="#f0f4fb" stroke="#d2dceb"/><text x="688" y="338" fill="#7a8cae">-</text>
    <rect x="701" y="324" width="36" height="20" rx="3" fill="#fff" stroke="#b9c7df"/><text x="709" y="338" fill="#42577f">-1.2</text>
    <rect x="739" y="324" width="18" height="20" rx="3" fill="#f0f4fb" stroke="#d2dceb"/><text x="745" y="338" fill="#7a8cae">+</text>

    <rect x="544" y="356" width="14" height="14" fill="#fff" stroke="#9aaac8"/><text x="566" y="368">Hydroxyl Oxygen</text>
    <rect x="681" y="352" width="18" height="20" rx="3" fill="#f0f4fb" stroke="#d2dceb"/><text x="688" y="366" fill="#7a8cae">-</text>
    <rect x="701" y="352" width="36" height="20" rx="3" fill="#fff" stroke="#b9c7df"/><text x="709" y="366" fill="#42577f">-0.8</text>
    <rect x="739" y="352" width="18" height="20" rx="3" fill="#f0f4fb" stroke="#d2dceb"/><text x="745" y="366" fill="#7a8cae">+</text>

    <rect x="544" y="384" width="14" height="14" fill="#fff" stroke="#9aaac8"/><text x="566" y="396">Water Oxygen</text>
    <rect x="681" y="380" width="18" height="20" rx="3" fill="#f0f4fb" stroke="#d2dceb"/><text x="688" y="394" fill="#7a8cae">-</text>
    <rect x="701" y="380" width="36" height="20" rx="3" fill="#fff" stroke="#b9c7df"/><text x="709" y="394" fill="#42577f">-0.3</text>
    <rect x="739" y="380" width="18" height="20" rx="3" fill="#f0f4fb" stroke="#d2dceb"/><text x="745" y="394" fill="#7a8cae">+</text>

    <rect x="544" y="412" width="14" height="14" fill="#fff" stroke="#9aaac8"/><text x="566" y="424">Benzene Carbon</text>
    <rect x="681" y="408" width="18" height="20" rx="3" fill="#f0f4fb" stroke="#d2dceb"/><text x="688" y="422" fill="#7a8cae">-</text>
    <rect x="701" y="408" width="36" height="20" rx="3" fill="#fff" stroke="#b9c7df"/><text x="709" y="422" fill="#42577f">-1.2</text>
    <rect x="739" y="408" width="18" height="20" rx="3" fill="#f0f4fb" stroke="#d2dceb"/><text x="745" y="422" fill="#7a8cae">+</text>

    <rect x="544" y="440" width="14" height="14" fill="#fff" stroke="#9aaac8"/><text x="566" y="452">Propane Carbon</text>
    <rect x="681" y="436" width="18" height="20" rx="3" fill="#f0f4fb" stroke="#d2dceb"/><text x="688" y="450" fill="#7a8cae">-</text>
    <rect x="701" y="436" width="36" height="20" rx="3" fill="#fff" stroke="#b9c7df"/><text x="709" y="450" fill="#42577f">-1.2</text>
    <rect x="739" y="436" width="18" height="20" rx="3" fill="#f0f4fb" stroke="#d2dceb"/><text x="745" y="450" fill="#7a8cae">+</text>

    <rect x="544" y="468" width="14" height="14" fill="#fff" stroke="#9aaac8"/><text x="566" y="480">Formamide Nitrogen</text>
    <rect x="681" y="464" width="18" height="20" rx="3" fill="#f0f4fb" stroke="#d2dceb"/><text x="688" y="478" fill="#7a8cae">-</text>
    <rect x="701" y="464" width="36" height="20" rx="3" fill="#fff" stroke="#b9c7df"/><text x="709" y="478" fill="#42577f">-1.2</text>
    <rect x="739" y="464" width="18" height="20" rx="3" fill="#f0f4fb" stroke="#d2dceb"/><text x="745" y="478" fill="#7a8cae">+</text>

    <rect x="544" y="496" width="14" height="14" fill="#fff" stroke="#9aaac8"/><text x="566" y="508">Formamide Oxygen</text>
    <rect x="681" y="492" width="18" height="20" rx="3" fill="#f0f4fb" stroke="#d2dceb"/><text x="688" y="506" fill="#7a8cae">-</text>
    <rect x="701" y="492" width="36" height="20" rx="3" fill="#fff" stroke="#b9c7df"/><text x="709" y="506" fill="#42577f">-1.2</text>
    <rect x="739" y="492" width="18" height="20" rx="3" fill="#f0f4fb" stroke="#d2dceb"/><text x="745" y="506" fill="#7a8cae">+</text>
  </g>

  <text x="534" y="748" font-family="Arial, sans-serif" font-size="11" fill="#7081a1">Per-map iso controls concept (no global iso)</text>
</svg>
